<svg id="Layer_1" data-name="Layer 1" xmlns="http://www.w3.org/2000/svg" viewBox="0 0 180.36 14.04"><defs><style>.cls-1{fill:#fff;fill-rule:evenodd;}</style></defs><title>000_L_curv одна строк5а</title><path class="cls-1" d="M6.71,13.81H5.27V7.58L0,.23H1.67L6,6.24l4.35-6H12L6.71,7.56v6.25ZM23.56,14a5.36,5.36,0,0,1-4-1.57A6.06,6.06,0,0,1,18,8V.23h1.44V8.05a5,5,0,0,0,1.09,3.42,3.84,3.84,0,0,0,3,1.23,3.82,3.82,0,0,0,3-1.23,5,5,0,0,0,1.1-3.42V.23H29.1V8a6.06,6.06,0,0,1-1.55,4.44,5.34,5.34,0,0,1-4,1.57ZM38,13.81H36.61V.23h6.07a4.65,4.65,0,0,1,3.13,1A3.37,3.37,0,0,1,47,3.92a3.57,3.57,0,0,1-.84,2.42,3.83,3.83,0,0,1-2.36,1.22l4.38,6.25H46.46L42.19,7.7H38v6.11ZM38,1.53V6.4H42.6a3.31,3.31,0,0,0,2.16-.63A2.2,2.2,0,0,0,45.53,4a2.21,2.21,0,0,0-.78-1.81,3.32,3.32,0,0,0-2.15-.64ZM71.51.23h1.43v5.9L79.22.23h1.9L74.45,6.44l7.7,7.37h-2L72.94,6.9v6.91H71.51V.23ZM93.53,14a5.34,5.34,0,0,1-4-1.57A6.06,6.06,0,0,1,88,8V.23h1.43V8.05a5,5,0,0,0,1.1,3.42,4.31,4.31,0,0,0,6,0,5,5,0,0,0,1.09-3.42V.23h1.44V8a6.11,6.11,0,0,1-1.55,4.44,5.38,5.38,0,0,1-4,1.57Zm22.07-.23h-9V.23H108V12.51h7.58v1.3Zm8,0h-1.43V.23h1.43V13.81ZM131.36.23h1.43v5.9l6.29-5.9H141l-6.67,6.21L142,13.81h-2l-7.2-6.91v6.91h-1.43V.23ZM149.43,2a6.89,6.89,0,0,1,9.75,0,6.87,6.87,0,0,1,2,5,6.9,6.9,0,0,1-2,5,6.94,6.94,0,0,1-9.75,0,6.92,6.92,0,0,1-1.94-5,6.9,6.9,0,0,1,1.94-5Zm1.06,9.05a5.3,5.3,0,0,0,7.65,0A5.71,5.71,0,0,0,159.69,7a5.71,5.71,0,0,0-1.55-4,5.3,5.3,0,0,0-7.65,0,5.71,5.71,0,0,0-1.55,4,5.71,5.71,0,0,0,1.55,4.05Zm23.87,2.82H173l-6-13.66h1.57l5.08,11.68L178.78.23h1.58Z"/><polygon class="cls-1" points="58.59 0.19 59.93 0.19 65.9 13.85 64.33 13.85 59.25 2.17 54.17 13.85 52.6 13.85 58.59 0.19"/></svg>